<?xml version="1.0" encoding="utf-8"?>
<!-- Generator: Adobe Illustrator 23.0.2, SVG Export Plug-In . SVG Version: 6.00 Build 0)  -->
<svg version="1.1" id="Layer_1" xmlns="http://www.w3.org/2000/svg" xmlns:xlink="http://www.w3.org/1999/xlink" x="0px" y="0px"
	 viewBox="0 0 40 40" style="enable-background:new 0 0 40 40;" xml:space="preserve">
<style type="text/css">
	.st0{fill:none;}
	.st1{fill-rule:evenodd;clip-rule:evenodd;fill:#28A8EA;}
	.st2{opacity:0.3;fill-rule:evenodd;clip-rule:evenodd;}
	.st3{fill-rule:evenodd;clip-rule:evenodd;fill:#FFFFFF;}
</style>
<g>
	<rect x="10" y="10" class="st0" width="20" height="20"/>
</g>
<circle class="st1" cx="16.5" cy="16.5" r="5.5"/>
<circle class="st1" cx="23.5" cy="23.5" r="5.5"/>
<path class="st2" d="M28.78,21.97C28.12,19.68,26.01,18,23.5,18c-3.04,0-5.5,2.46-5.5,5.5c0,2.51,1.68,4.62,3.97,5.28
	C25.35,28.03,28.03,25.35,28.78,21.97z"/>
<path class="st2" d="M18.03,11.22c-3.39,0.76-6.06,3.43-6.82,6.82C11.88,20.32,13.99,22,16.5,22c3.04,0,5.5-2.46,5.5-5.5
	C22,13.99,20.32,11.88,18.03,11.22z"/>
<circle class="st1" cx="20" cy="20" r="8.25"/>
<path id="letter_203_" class="st3" d="M17.74,19.84c-0.36-0.25-0.63-0.53-0.82-0.87c-0.19-0.33-0.28-0.73-0.28-1.2
	c0-0.57,0.17-1.05,0.51-1.45c0.34-0.39,0.78-0.69,1.32-0.88c0.54-0.19,1.12-0.29,1.73-0.29c0.43,0,0.81,0.03,1.15,0.09
	c0.34,0.06,0.6,0.13,0.8,0.21c0.29,0.11,0.5,0.25,0.62,0.4c0.13,0.15,0.19,0.33,0.19,0.54c0,0.23-0.07,0.42-0.2,0.56
	c-0.13,0.14-0.3,0.21-0.51,0.21c-0.13,0-0.25-0.03-0.38-0.08c-0.34-0.15-0.64-0.26-0.9-0.33c-0.26-0.07-0.55-0.11-0.87-0.11
	c-0.44,0-0.8,0.09-1.09,0.28c-0.29,0.19-0.43,0.46-0.43,0.81c0,0.22,0.08,0.41,0.23,0.57c0.15,0.16,0.35,0.31,0.61,0.43
	c0.25,0.13,0.63,0.29,1.14,0.5c0.09,0.03,0.14,0.05,0.16,0.07c0.57,0.24,1.04,0.48,1.41,0.73c0.37,0.25,0.66,0.55,0.87,0.89
	c0.21,0.35,0.31,0.76,0.31,1.24c0,0.59-0.14,1.09-0.43,1.49c-0.29,0.4-0.69,0.7-1.22,0.9c-0.52,0.2-1.13,0.3-1.83,0.3
	c-1.01,0-1.84-0.16-2.49-0.47c-0.23-0.11-0.4-0.25-0.51-0.4c-0.11-0.15-0.17-0.33-0.17-0.54c0-0.24,0.07-0.42,0.22-0.55
	c0.15-0.13,0.33-0.2,0.57-0.2c0.22,0,0.44,0.06,0.66,0.17c0.25,0.13,0.45,0.22,0.6,0.28c0.15,0.06,0.32,0.12,0.52,0.16
	c0.2,0.05,0.42,0.07,0.66,0.07c0.49,0,0.86-0.1,1.11-0.3c0.25-0.2,0.38-0.47,0.38-0.81c0-0.22-0.08-0.42-0.24-0.59
	c-0.16-0.17-0.39-0.34-0.69-0.5c-0.3-0.16-0.73-0.36-1.29-0.59C18.57,20.33,18.1,20.08,17.74,19.84"/>
</svg>
