<?xml version="1.0" encoding="utf-8"?>
<!-- Generator: Adobe Illustrator 23.0.2, SVG Export Plug-In . SVG Version: 6.00 Build 0)  -->
<svg version="1.1" id="Layer_1" xmlns="http://www.w3.org/2000/svg" xmlns:xlink="http://www.w3.org/1999/xlink" x="0px" y="0px"
	 viewBox="0 0 40 40" style="enable-background:new 0 0 40 40;" xml:space="preserve">
<style type="text/css">
	.st0{fill:none;}
	.st1{fill:#28A8EA;}
	.st2{fill:#0078D4;}
	.st3{fill:#0358A7;}
	.st4{opacity:0.5;}
	.st5{fill:#F9F7F7;}
</style>
<g id="_x32_0_4_">
	<g>
		<rect x="10" y="10" class="st0" width="20" height="20"/>
	</g>
	<g>
		<path class="st1" d="M18.7,18.5c-0.07-0.26-0.16-0.58-0.26-0.83c-0.27-0.63-0.63-1.2-1.1-1.7c-0.05-0.05-0.07-0.11-0.07-0.18
			c0-0.07,0.03-0.14,0.08-0.19l5.45-5.44c0.21-0.21,0.56-0.21,0.77,0.01c1.14,1.23,2.05,2.64,2.71,4.19
			c0.26,0.61,0.5,1.35,0.68,1.99l-3.66,3.23L18.7,18.5z"/>
		<path class="st2" d="M29.56,16.24c-0.07-0.28-0.37-0.46-0.66-0.38l-10.16,2.64c0.13,0.49,0.2,0.99,0.2,1.51
			c0,0.51-0.07,1.01-0.2,1.5l4.09,2.29l4.16-0.14l1.91,0.5c0.29,0.08,0.59-0.1,0.66-0.38C29.85,22.54,30,21.28,30,20
			C30,18.72,29.85,17.46,29.56,16.24z"/>
		<path class="st3" d="M18.7,21.5c-0.07,0.26-0.16,0.58-0.26,0.83c-0.27,0.63-0.63,1.2-1.1,1.7c-0.05,0.05-0.07,0.11-0.07,0.18
			c0,0.07,0.03,0.14,0.08,0.19l5.45,5.44c0.21,0.21,0.56,0.21,0.77-0.01c1.14-1.23,2.05-2.64,2.71-4.19
			c0.26-0.61,0.5-1.35,0.68-1.99L18.7,21.5z"/>
	</g>
	<path class="st4" d="M23,16c0-0.55-0.42-1-0.93-1h-3.42l-0.58,0.63c-0.01,0.02-0.03,0.03-0.04,0.05c-0.06,0.11-0.04,0.24,0.03,0.32
		c0.45,0.52,0.8,1.12,1.06,1.77c0.1,0.25,0.18,0.55,0.25,0.81c0.13,0.5,0.19,1.02,0.19,1.55c0,0.53-0.06,1.04-0.19,1.54
		c-0.07,0.27-0.15,0.59-0.25,0.85c-0.06,0.16-0.47,0.31-1.05,0.46c-0.21,0.37-0.45,0.72-0.74,1.03c-0.05,0.05-0.07,0.11-0.07,0.18
		c0,0.07,0.03,0.14,0.08,0.19l2.59,2.59L20.24,27h1.65c0.56,0,1.11-0.61,1.11-1.16V16z"/>
	<path id="Back_Plate_4_" class="st2" d="M21,26H11c-0.55,0-1-0.45-1-1V15c0-0.55,0.45-1,1-1h10c0.55,0,1,0.45,1,1v10
		C22,25.55,21.55,26,21,26z"/>
	<g>
		<path class="st5" d="M15.87,19.47c0.05,0.09,0.1,0.24,0.16,0.43h0.02c0.05-0.18,0.1-0.32,0.16-0.42l1.47-2.76
			c0.11-0.21,0.33-0.34,0.57-0.34h0c0.5,0,0.81,0.54,0.56,0.97l-2.03,3.53c-0.06,0.1-0.09,0.21-0.09,0.32v1.79
			c0,0.36-0.29,0.64-0.64,0.64h-0.13c-0.36,0-0.64-0.29-0.64-0.64v-1.77c0-0.11-0.03-0.22-0.08-0.31l-1.99-3.57
			c-0.24-0.43,0.07-0.96,0.56-0.96h0.13c0.24,0,0.46,0.13,0.57,0.35L15.87,19.47z"/>
	</g>
</g>
</svg>
